<svg width="31" height="31" viewBox="0 0 31 31" fill="none" xmlns="http://www.w3.org/2000/svg">
<path fill-rule="evenodd" clip-rule="evenodd" d="M6.9631 20.4614C6.79214 20.1497 6.63741 19.8274 6.50005 19.4958C5.50146 17.0852 5.50146 14.3766 6.50005 11.9659C7.49864 9.55524 9.41399 7.64 11.8248 6.64149C14.2356 5.64294 16.9443 5.64294 19.3551 6.64149C21.7659 7.64 23.6812 9.55524 24.6798 11.9659C25.6783 14.3766 25.6783 17.0852 24.6798 19.4958C23.6812 21.9065 21.7659 23.8217 19.3551 24.8203C16.9443 25.8188 14.2356 25.8188 11.8248 24.8203C11.4926 24.6826 11.1698 24.5276 10.8575 24.3563L5.36969 25.9495L6.9631 20.4614Z" fill="white"/>
<path d="M6.50004 19.4958L7.19293 19.2088L6.50004 19.4958ZM6.96309 20.4614L7.68336 20.6705C7.73871 20.4798 7.71617 20.2749 7.62069 20.1008L6.96309 20.4614ZM6.50004 11.9659L7.19293 12.2529L6.50004 11.9659ZM11.8247 6.64148L11.5378 5.94856L11.8247 6.64148ZM19.355 6.64148L19.642 5.94856L19.355 6.64148ZM24.6798 11.9659L25.3727 11.6789L24.6798 11.9659ZM24.6798 19.4958L25.3727 19.7828L24.6798 19.4958ZM19.355 24.8202L19.642 25.5131L19.355 24.8202ZM11.8247 24.8202L12.1118 24.1273L11.8247 24.8202ZM10.8575 24.3563L11.2182 23.6988C11.044 23.6033 10.8391 23.5807 10.6484 23.6361L10.8575 24.3563ZM5.36968 25.9495L4.64946 25.7403C4.57318 26.003 4.64597 26.2864 4.83936 26.4798C5.03278 26.6732 5.31613 26.746 5.57878 26.6697L5.36968 25.9495ZM5.80712 19.7828C5.95494 20.1397 6.12148 20.4865 6.30546 20.822L7.62069 20.1008C7.46278 19.8128 7.31983 19.5151 7.19293 19.2088L5.80712 19.7828ZM5.80712 11.6789C4.73244 14.2733 4.73244 17.1884 5.80712 19.7828L7.19293 19.2088C6.27051 16.9819 6.27051 14.4798 7.19293 12.2529L5.80712 11.6789ZM11.5378 5.94856C8.94321 7.02319 6.88183 9.08446 5.80712 11.6789L7.19293 12.2529C8.11539 10.026 9.88476 8.25679 12.1118 7.33437L11.5378 5.94856ZM19.642 5.94856C17.0475 4.87392 14.1323 4.87392 11.5378 5.94856L12.1118 7.33437C14.3388 6.41198 16.841 6.41198 19.0681 7.33437L19.642 5.94856ZM25.3727 11.6789C24.298 9.08446 22.2366 7.02319 19.642 5.94856L19.0681 7.33437C21.2951 8.25679 23.0644 10.026 23.9869 12.2529L25.3727 11.6789ZM25.3727 19.7828C26.4474 17.1884 26.4474 14.2733 25.3727 11.6789L23.9869 12.2529C24.9093 14.4798 24.9093 16.9819 23.9869 19.2088L25.3727 19.7828ZM19.642 25.5131C22.2366 24.4385 24.298 22.3773 25.3727 19.7828L23.9869 19.2088C23.0644 21.4356 21.2951 23.2049 19.0681 24.1273L19.642 25.5131ZM11.5378 25.5131C14.1323 26.5878 17.0475 26.5878 19.642 25.5131L19.0681 24.1273C16.841 25.0497 14.3388 25.0497 12.1118 24.1273L11.5378 25.5131ZM10.4968 25.0139C10.8329 25.1982 11.1803 25.3651 11.5378 25.5131L12.1118 24.1273C11.8048 24.0002 11.5066 23.857 11.2182 23.6988L10.4968 25.0139ZM10.6484 23.6361L5.16058 25.2292L5.57878 26.6697L11.0666 25.0766L10.6484 23.6361ZM6.08994 26.1586L7.68336 20.6705L6.24283 20.2523L4.64946 25.7403L6.08994 26.1586Z" fill="white"/>
</svg>
