<svg width="31" height="31" viewBox="0 0 31 31" fill="none" xmlns="http://www.w3.org/2000/svg">
<path fill-rule="evenodd" clip-rule="evenodd" d="M7.01486 8.44491C6.0303 9.42948 5.47717 10.7648 5.47717 12.1572C5.47717 13.5496 6.0303 14.885 7.01486 15.8695L12.3181 21.1728L14.9698 23.8245C15.2627 24.1174 15.7375 24.1174 16.0305 23.8245L18.6821 21.1728L23.9854 15.8695C24.97 14.885 25.5231 13.5496 25.5231 12.1572C25.5231 10.7648 24.97 9.42948 23.9854 8.44491C23.0008 7.46035 21.6655 6.90723 20.2731 6.90723C18.8807 6.90723 17.5453 7.46035 16.5608 8.44491L15.7593 9.24644C15.6162 9.38954 15.3841 9.38954 15.241 9.24644L14.4395 8.44491C13.4549 7.46035 12.1195 6.90723 10.7272 6.90723C9.33476 6.90723 7.99942 7.46035 7.01486 8.44491Z" fill="white"/>
<path d="M5.47717 12.1572H4.53967H5.47717ZM7.01486 15.8695L7.67775 15.2066L7.01486 15.8695ZM12.3181 21.1728L11.6552 21.8357L12.3181 21.1728ZM18.6821 21.1728L18.0192 20.5099L18.6821 21.1728ZM10.7272 6.90723V5.96973V6.90723ZM14.9698 23.8245L15.6327 23.1616L14.9698 23.8245ZM16.0305 23.8245L15.3675 23.1616L16.0305 23.8245ZM6.35194 7.78199C5.19154 8.94239 4.53967 10.5162 4.53967 12.1572H6.41467C6.41467 11.0135 6.86902 9.91656 7.67775 9.10784L6.35194 7.78199ZM4.53967 12.1572C4.53967 13.7983 5.19157 15.3721 6.35194 16.5324L7.67775 15.2066C6.86902 14.3979 6.41467 13.301 6.41467 12.1572H4.53967ZM6.35194 16.5324L11.6552 21.8357L12.9811 20.5099L7.67775 15.2066L6.35194 16.5324ZM11.6552 21.8357L14.3069 24.4874L15.6327 23.1616L12.9811 20.5099L11.6552 21.8357ZM16.6934 24.4874L19.345 21.8357L18.0192 20.5099L15.3675 23.1616L16.6934 24.4874ZM19.345 21.8357L24.6483 16.5324L23.3225 15.2066L18.0192 20.5099L19.345 21.8357ZM24.6483 16.5324C25.8087 15.3721 26.4606 13.7983 26.4606 12.1572H24.5856C24.5856 13.301 24.1312 14.3979 23.3225 15.2066L24.6483 16.5324ZM26.4606 12.1572C26.4606 10.5162 25.8087 8.94239 24.6483 7.78199L23.3225 9.10784C24.1312 9.91656 24.5856 11.0135 24.5856 12.1572H26.4606ZM24.6483 7.78199C23.4879 6.62163 21.9141 5.96973 20.2731 5.96973V7.84473C21.4168 7.84473 22.5138 8.29908 23.3225 9.10784L24.6483 7.78199ZM20.2731 5.96973C18.6321 5.96973 17.0583 6.62163 15.8979 7.78199L17.2237 9.10784C18.0324 8.29908 19.1293 7.84473 20.2731 7.84473V5.96973ZM15.8979 7.78199L15.0963 8.58351L16.4222 9.90936L17.2237 9.10784L15.8979 7.78199ZM15.9039 8.58351L15.1024 7.78199L13.7766 9.10784L14.5781 9.90936L15.9039 8.58351ZM15.1024 7.78199C13.942 6.62163 12.3682 5.96973 10.7272 5.96973V7.84473C11.8709 7.84473 12.9678 8.29908 13.7766 9.10784L15.1024 7.78199ZM10.7272 5.96973C9.08613 5.96973 7.51234 6.62163 6.35194 7.78199L7.67775 9.10784C8.48651 8.29908 9.58342 7.84473 10.7272 7.84473V5.96973ZM15.0963 8.58351C15.3193 8.3605 15.6809 8.36054 15.9039 8.58351L14.5781 9.90936C15.0873 10.4186 15.9129 10.4186 16.4222 9.90936L15.0963 8.58351ZM14.3069 24.4874C14.9659 25.1464 16.0344 25.1464 16.6934 24.4874L15.3675 23.1616C15.4408 23.0883 15.5595 23.0883 15.6327 23.1616L14.3069 24.4874Z" fill="white"/>
</svg>
