<svg width="206" height="31" viewBox="0 0 206 31" fill="none" xmlns="http://www.w3.org/2000/svg">
<path d="M17.017 8.47727C16.8655 7.13258 16.2405 6.09091 15.142 5.35227C14.0436 4.60417 12.661 4.23012 10.9943 4.23012C9.80114 4.23012 8.76894 4.41951 7.89773 4.7983C7.02651 5.16761 6.34943 5.67898 5.86648 6.33239C5.39299 6.97633 5.15625 7.71023 5.15625 8.53409C5.15625 9.22538 5.31724 9.82197 5.6392 10.3239C5.97064 10.8258 6.40152 11.2472 6.93182 11.5881C7.47159 11.9195 8.04924 12.1989 8.66477 12.4261C9.2803 12.6439 9.87216 12.8239 10.4403 12.9659L13.2812 13.7045C14.2093 13.9318 15.161 14.2396 16.1364 14.6278C17.1117 15.0161 18.0161 15.5275 18.8494 16.1619C19.6828 16.7964 20.3551 17.5824 20.8665 18.5199C21.3873 19.4574 21.6477 20.5795 21.6477 21.8864C21.6477 23.5341 21.2216 24.9972 20.3693 26.2756C19.5265 27.554 18.3002 28.5625 16.6903 29.3011C15.09 30.0398 13.1534 30.4091 10.8807 30.4091C8.70265 30.4091 6.81818 30.0634 5.22727 29.3722C3.63636 28.6809 2.3911 27.7008 1.49148 26.4318C0.591856 25.1534 0.0946969 23.6383 0 21.8864H4.40341C4.48864 22.9375 4.82955 23.8135 5.42614 24.5142C6.0322 25.2055 6.80398 25.7216 7.74148 26.0625C8.68845 26.3939 9.72538 26.5597 10.8523 26.5597C12.0928 26.5597 13.196 26.3655 14.1619 25.9773C15.1373 25.5795 15.9044 25.0303 16.4631 24.3295C17.0218 23.6193 17.3011 22.7907 17.3011 21.8438C17.3011 20.982 17.0549 20.2765 16.5625 19.7273C16.0795 19.178 15.4214 18.7235 14.5881 18.3636C13.7642 18.0038 12.8314 17.6866 11.7898 17.4119L8.35227 16.4744C6.02273 15.84 4.17614 14.9072 2.8125 13.6761C1.45833 12.4451 0.78125 10.8163 0.78125 8.78977C0.78125 7.11364 1.2358 5.65057 2.14489 4.40057C3.05398 3.15057 4.28504 2.17992 5.83807 1.48864C7.3911 0.78788 9.14299 0.4375 11.0938 0.4375C13.0634 0.4375 14.8011 0.783145 16.3068 1.47443C17.822 2.16572 19.0152 3.11743 19.8864 4.32955C20.7576 5.5322 21.2121 6.91477 21.25 8.47727H17.017Z" fill="white"/>
<path d="M25.4581 4.61364V0.835228H47.9723V4.61364H38.8956V29.9261H34.5206V4.61364H25.4581Z" fill="white"/>
<path d="M51.9673 29.9261H47.3082L57.777 0.835228H62.848L73.3168 29.9261H68.6577L60.4332 6.11932H60.206L51.9673 29.9261ZM52.7486 18.5341H67.8622V22.2273H52.7486V18.5341Z" fill="white"/>
<path d="M100.998 0.835228V29.9261H96.9638L82.1768 8.59091H81.907V29.9261H77.5178V0.835228H81.5803L96.3814 22.1989H96.6513V0.835228H100.998Z" fill="white"/>
<path d="M116.818 29.9261H107.401V0.835228H117.116C119.967 0.835228 122.415 1.41761 124.46 2.58239C126.506 3.73769 128.073 5.39962 129.162 7.56818C130.26 9.72727 130.81 12.3172 130.81 15.3381C130.81 18.3684 130.256 20.9725 129.148 23.1506C128.049 25.3286 126.458 27.0047 124.375 28.179C122.292 29.3438 119.773 29.9261 116.818 29.9261ZM111.79 26.0909H116.577C118.793 26.0909 120.634 25.6742 122.102 24.8409C123.57 23.9981 124.669 22.7813 125.398 21.1903C126.127 19.59 126.491 17.6392 126.491 15.3381C126.491 13.0559 126.127 11.1193 125.398 9.52841C124.678 7.9375 123.603 6.73011 122.173 5.90625C120.743 5.08239 118.968 4.67046 116.847 4.67046H111.79V26.0909Z" fill="white"/>
<path d="M172.124 15.3807C172.124 18.4867 171.555 21.1572 170.419 23.392C169.283 25.6174 167.725 27.3314 165.746 28.5341C163.776 29.7273 161.536 30.3239 159.027 30.3239C156.508 30.3239 154.259 29.7273 152.28 28.5341C150.31 27.3314 148.757 25.6127 147.621 23.3778C146.484 21.143 145.916 18.4773 145.916 15.3807C145.916 12.2746 146.484 9.6089 147.621 7.38352C148.757 5.14868 150.31 3.43466 152.28 2.24148C154.259 1.03883 156.508 0.4375 159.027 0.4375C161.536 0.4375 163.776 1.03883 165.746 2.24148C167.725 3.43466 169.283 5.14868 170.419 7.38352C171.555 9.6089 172.124 12.2746 172.124 15.3807ZM167.777 15.3807C167.777 13.0133 167.393 11.0199 166.626 9.40057C165.869 7.77178 164.827 6.54072 163.501 5.70739C162.185 4.86458 160.694 4.44318 159.027 4.44318C157.351 4.44318 155.855 4.86458 154.538 5.70739C153.222 6.54072 152.18 7.77178 151.413 9.40057C150.656 11.0199 150.277 13.0133 150.277 15.3807C150.277 17.7481 150.656 19.7462 151.413 21.375C152.18 22.9943 153.222 24.2254 154.538 25.0682C155.855 25.9015 157.351 26.3182 159.027 26.3182C160.694 26.3182 162.185 25.9015 163.501 25.0682C164.827 24.2254 165.869 22.9943 166.626 21.375C167.393 19.7462 167.777 17.7481 167.777 15.3807Z" fill="white"/>
<path d="M181.985 0.835228V29.9261H177.596V0.835228H181.985Z" fill="white"/>
<path d="M188.377 29.9261V0.835228H192.766V26.1477H205.948V29.9261H188.377Z" fill="white"/>
</svg>
