<svg width="22" height="30" viewBox="0 0 22 30" fill="none" xmlns="http://www.w3.org/2000/svg">
<path fill-rule="evenodd" clip-rule="evenodd" d="M19.6118 0.681344V10.2202H17.8675C17.7948 8.94836 17.5041 7.73102 16.9954 6.56819C16.4867 5.36902 15.7417 4.38787 14.7606 3.62477C13.7794 2.82532 12.5076 2.42559 10.945 2.42559C9.27346 2.42559 7.96527 2.84349 7.02047 3.67927C6.07567 4.51506 5.60327 5.47803 5.60327 6.56819C5.60327 7.69468 5.94848 8.63948 6.63892 9.40259C7.36569 10.1294 8.29232 10.7653 9.41881 11.3104C10.5453 11.8554 11.7445 12.3823 13.0163 12.8911C14.3972 13.4725 15.7417 14.1084 17.0499 14.7989C18.3581 15.4893 19.4301 16.3614 20.2659 17.4152C21.1016 18.4327 21.5195 19.7591 21.5195 21.3943C21.5195 23.2112 21.0471 24.7193 20.1023 25.9184C19.1939 27.1176 18.0129 27.9897 16.5593 28.5348C15.1421 29.1162 13.6522 29.4069 12.0897 29.4069C10.2728 29.4069 8.6557 29.1526 7.2385 28.6438C6.04247 28.2452 5.02761 27.7947 4.19392 27.2925C4.03975 27.1996 3.89178 27.105 3.75 27.0086L3.96804 28.9164H1.67878L1.35166 19.541H3.04135C3.11403 21.0309 3.53197 22.3754 4.29508 23.5746C5.05819 24.7374 6.03933 25.6459 7.2385 26.3C8.43767 26.9541 9.72769 27.2811 11.1086 27.2811C12.0534 27.2811 12.98 27.1358 13.8885 26.8451C14.7969 26.518 15.56 26.0456 16.1778 25.4279C16.7955 24.7738 17.1044 23.9562 17.1044 22.975C17.1044 21.9575 16.7955 21.1218 16.1778 20.4677C15.5964 19.7772 14.8151 19.1776 13.8339 18.6689C12.8528 18.1602 11.799 17.6878 10.6725 17.2517C9.58233 16.8156 8.49218 16.3614 7.40202 15.889C6.31187 15.4166 5.29439 14.8534 4.34959 14.1993C3.44113 13.5452 2.71436 12.7457 2.16928 11.8009C1.6242 10.8561 1.35166 9.6933 1.35166 8.31243C1.35166 7.54932 1.49702 6.71354 1.78772 5.80508C2.07843 4.89661 2.569 4.04266 3.25943 3.24321C3.94987 2.40743 4.89467 1.73516 6.09384 1.22642C7.29301 0.681344 8.81923 0.408807 10.6725 0.408807C11.6536 0.408807 12.7438 0.572332 13.943 0.899378C14.9913 1.1853 16.0119 1.69341 17.0048 2.42372C17.1476 2.52877 17.2898 2.63841 17.4315 2.75264L17.3224 0.681344H19.6118ZM16.9773 1.90176L16.8916 0.272537H20.0206V10.629H17.4814L17.4594 10.2435C17.3895 9.01997 17.1101 7.85023 16.6209 6.73204L16.619 6.72786C16.1361 5.58963 15.4331 4.66571 14.5096 3.94746L14.5023 3.94177C13.6099 3.21468 12.4362 2.8344 10.945 2.8344C9.34025 2.8344 8.13992 3.2348 7.29134 3.98547C6.41903 4.75712 6.01208 5.61403 6.01208 6.56819C6.01208 7.59991 6.324 8.44154 6.9353 9.12082C7.62254 9.80612 8.50675 10.4149 9.59687 10.9424C10.714 11.4829 11.9044 12.006 13.1682 12.5115L13.175 12.5143C14.5667 13.1002 15.9219 13.7413 17.2407 14.4373C18.5929 15.151 19.7099 16.0572 20.584 17.1585C21.4918 18.265 21.9283 19.6894 21.9283 21.3943C21.9283 23.2834 21.4361 24.8847 20.4258 26.1685C19.4706 27.4281 18.2283 28.3444 16.7087 28.9154C15.243 29.5158 13.7023 29.8157 12.0897 29.8157C10.237 29.8157 8.57334 29.5567 7.10483 29.0302C6.01402 28.6663 5.0616 28.257 4.25186 27.7995L4.42623 29.3252H1.28391L0.928345 19.1322H3.43076L3.44973 19.5211C3.51907 20.9428 3.91634 22.2171 4.63849 23.3528C5.36519 24.4593 6.29605 25.3203 7.43426 25.9411C8.5727 26.5621 9.79531 26.8723 11.1086 26.8723C12.0082 26.8723 12.8905 26.7344 13.7568 26.458C14.6095 26.15 15.3158 25.7104 15.8845 25.143C16.4212 24.5727 16.6956 23.8599 16.6956 22.975C16.6956 22.0472 16.4171 21.3165 15.8806 20.7484L15.8726 20.7399L15.8651 20.731C15.325 20.0897 14.5897 19.5213 13.6458 19.0318C12.679 18.5305 11.6388 18.0641 10.5249 17.6329L10.5207 17.6313C9.42687 17.1938 8.33314 16.738 7.23948 16.2641C6.12555 15.7814 5.08448 15.2053 4.11689 14.5354L4.11068 14.5311C3.15648 13.8441 2.38997 13.0015 1.81518 12.0052C1.22592 10.9838 0.942854 9.74625 0.942854 8.31243C0.942854 7.498 1.09785 6.6196 1.39837 5.68048C1.70716 4.7155 2.22611 3.81504 2.94714 2.97937C3.68575 2.08657 4.68573 1.38045 5.92936 0.852128C7.19789 0.276618 8.78533 0 10.6725 0C11.6981 0 12.8252 0.170781 14.0505 0.504975C15.0575 0.779602 16.0331 1.24726 16.9773 1.90176Z" fill="#FF0000"/>
<path d="M13.4046 23.4928C12.269 23.4928 11.2584 23.3338 10.3726 23.0158C9.48688 22.7206 8.76011 22.3799 8.19232 21.9938L8.32859 23.1862H6.89776L6.69336 17.3266H7.74945C7.79487 18.2578 8.05605 19.0981 8.533 19.8476C9.00994 20.5744 9.62315 21.1421 10.3726 21.551C11.1221 21.9598 11.9284 22.1642 12.7914 22.1642C13.3819 22.1642 13.9611 22.0733 14.5289 21.8916C15.0966 21.6872 15.5736 21.392 15.9597 21.0059C16.3458 20.5971 16.5388 20.0861 16.5388 19.4728C16.5388 18.8369 16.3458 18.3146 15.9597 17.9057C15.5963 17.4742 15.108 17.0995 14.4948 16.7815C13.8816 16.4636 13.2229 16.1683 12.5189 15.8958C11.8375 15.6232 11.1562 15.3393 10.4748 15.0441C9.79349 14.7488 9.15756 14.3968 8.56706 13.988C7.99927 13.5792 7.54504 13.0795 7.20437 12.489C6.8637 11.8985 6.69336 11.1718 6.69336 10.3087C6.69336 9.83178 6.78421 9.30942 6.9659 8.74163C7.14759 8.17384 7.4542 7.64011 7.88572 7.14046C8.31724 6.61809 8.90774 6.19793 9.65722 5.87997C10.4067 5.53929 11.3606 5.36896 12.5189 5.36896C13.1321 5.36896 13.8134 5.47116 14.5629 5.67556C15.3124 5.87997 16.0392 6.26606 16.7432 6.83385L16.6751 5.53929H18.1059V11.5011H17.0158C16.9703 10.7062 16.7887 9.94534 16.4707 9.21857C16.1527 8.46909 15.6871 7.85587 15.0739 7.37893C14.4607 6.87928 13.6658 6.62945 12.6892 6.62945C11.6445 6.62945 10.8269 6.89063 10.2364 7.413C9.64586 7.93536 9.35061 8.53722 9.35061 9.21857C9.35061 9.92263 9.56637 10.5131 9.99789 10.9901C10.4521 11.4443 11.0313 11.8418 11.7353 12.1824C12.4394 12.5231 13.1889 12.8524 13.9838 13.1704C14.8468 13.5338 15.6871 13.9312 16.5048 14.3627C17.3224 14.7943 17.9924 15.3393 18.5147 15.998C19.0371 16.6339 19.2983 17.4629 19.2983 18.4849C19.2983 19.6205 19.003 20.563 18.4125 21.3125C17.8447 22.062 17.1066 22.607 16.1982 22.9477C15.3124 23.3111 14.3812 23.4928 13.4046 23.4928Z" fill="#FF0000"/>
</svg>
