<svg width="80" height="80" viewBox="0 0 81 80" fill="none" xmlns="http://www.w3.org/2000/svg">
<path d="M40.5133 73.9003L38.8208 73.792L38.8417 73.4647L39.4392 73.3987L38.7366 70.9729L38.418 69.8142L38.0127 70.8865L37.0042 73.2429L37.5564 73.3824L37.5354 73.7098L36.0105 73.6122L36.0315 73.2849L36.4453 73.2071L38.2781 69.2441L38.813 69.2783L40.1657 73.4452L40.5343 73.573L40.5133 73.9003Z" fill="#FF0000"/>
<path d="M35.6522 70.1646C35.5427 70.6702 35.2134 70.9809 34.6645 71.0966C34.1144 71.2175 33.465 71.2051 32.7162 71.0592L32.6637 71.3016C32.6061 71.5674 32.5896 71.7821 32.6142 71.9457C32.6324 72.1134 32.7019 72.2458 32.8228 72.3429C32.9425 72.4452 33.1248 72.5229 33.3698 72.576C33.6357 72.6336 33.8871 72.6444 34.1241 72.6085C34.3547 72.5766 34.5841 72.5253 34.8122 72.4547L34.9097 72.836C34.8411 72.8757 34.7054 72.9227 34.5026 72.977C34.2998 73.0313 34.0733 73.0695 33.8229 73.0917C33.5725 73.1138 33.3379 73.1012 33.119 73.0537C32.7645 72.9769 32.4964 72.867 32.3146 72.7239C32.1275 72.5797 32.0134 72.3885 31.9723 72.1504C31.9259 71.9112 31.9428 71.6065 32.0229 71.2364L32.582 68.6563L32.0972 68.5513L32.1599 68.262C32.4635 68.2459 32.7144 68.2593 32.9124 68.3022C33.0375 68.3293 33.119 68.3688 33.1569 68.4207C33.1959 68.4673 33.2002 68.561 33.1697 68.7018L33.107 68.9911C33.3308 68.8649 33.5689 68.761 33.8212 68.6792C34.0672 68.6016 34.331 68.5932 34.6125 68.6542C34.9878 68.7355 35.2779 68.9075 35.4829 69.1702C35.6827 69.4318 35.7392 69.7633 35.6522 70.1646ZM34.278 69.0647C34.132 69.0331 33.9472 69.0421 33.7236 69.0919C33.5 69.1417 33.2907 69.2137 33.0957 69.3078L32.7958 70.6917C33.4276 70.8232 33.9275 70.8333 34.2954 70.722C34.6581 70.6096 34.8728 70.3996 34.9394 70.0921C35.0038 69.7949 34.9751 69.5623 34.8533 69.394C34.7304 69.2309 34.5386 69.1212 34.278 69.0647Z" fill="#FF0000"/>
<path d="M29.1032 73.4606L29.7203 73.7551L29.6216 74.0342L28.4751 73.7731L28.4676 73.7704L28.3589 73.6217L30.375 67.9196L29.6847 67.6161L29.7994 67.2918L31.783 67.9931L31.6683 68.3175L30.9833 68.1431L29.1032 73.4606Z" fill="#FF0000"/>
<path d="M25.6119 65.1634C25.7353 65.2267 25.8145 65.2943 25.8495 65.3662C25.8845 65.4381 25.8728 65.531 25.8144 65.6449L25.672 65.9225C25.9279 65.856 26.2049 65.8243 26.5031 65.8274C26.8012 65.8304 27.0689 65.8928 27.3062 66.0146C27.738 66.2361 27.9844 66.5153 28.0453 66.8523C28.1014 67.1868 27.9895 67.6269 27.7096 68.1726L26.636 70.2653L26.9939 70.6018L26.8588 70.8651L25.9501 70.5158L25.9429 70.5122L25.8586 70.361L27.0892 67.9623C27.2426 67.6633 27.3417 67.4175 27.3867 67.2247C27.4292 67.0367 27.4141 66.8732 27.3416 66.7341C27.2691 66.595 27.1237 66.4695 26.9055 66.3575C26.6967 66.2504 26.4742 66.1932 26.2382 66.186C26.0021 66.1788 25.7836 66.2016 25.5827 66.2543L24.1732 69.0019L24.6521 69.4004L24.517 69.6638L23.5228 69.2707L23.5157 69.267L23.3958 69.0976L25.2618 65.4603L24.8204 65.2339L24.9663 64.9671C24.9925 64.9745 25.071 64.9908 25.202 65.016C25.3329 65.0412 25.4695 65.0903 25.6119 65.1634Z" fill="#FF0000"/>
<path d="M23.942 65.5225C23.6384 65.9413 23.212 66.0933 22.6629 65.9784C22.1106 65.8679 21.521 65.5953 20.8942 65.1606L20.7486 65.3614C20.589 65.5816 20.4875 65.7715 20.4442 65.9312C20.3935 66.092 20.4039 66.2412 20.4755 66.3787C20.5439 66.5206 20.6796 66.665 20.8825 66.8122C21.1027 66.9718 21.3286 67.0829 21.56 67.1453C21.784 67.2088 22.0146 67.2542 22.2519 67.2813L22.1878 67.6696C22.109 67.6783 21.9658 67.6667 21.7584 67.6349C21.5509 67.6031 21.3281 67.5469 21.0899 67.4665C20.8518 67.3861 20.6421 67.2801 20.4607 67.1487C20.1671 66.9358 19.9658 66.7273 19.8569 66.5232C19.7437 66.3159 19.7161 66.095 19.7742 65.8604C19.8279 65.6227 19.9659 65.3506 20.1882 65.044L21.7378 62.9066L21.3362 62.6155L21.51 62.3758C21.7944 62.4832 22.0187 62.5964 22.1828 62.7154C22.2864 62.7905 22.3451 62.8594 22.3589 62.9222C22.3759 62.9806 22.3421 63.0681 22.2576 63.1846L22.0838 63.4243C22.3394 63.3988 22.5992 63.3994 22.8632 63.4261C23.1196 63.4539 23.3645 63.5524 23.5976 63.7214C23.9085 63.9468 24.105 64.221 24.187 64.544C24.2648 64.8638 24.1831 65.19 23.942 65.5225ZM23.1263 63.9627C23.0054 63.875 22.8325 63.809 22.6078 63.7646C22.3831 63.7203 22.1625 63.702 21.946 63.7098L21.1149 64.8562C21.6405 65.2306 22.0941 65.4409 22.4757 65.487C22.853 65.53 23.1339 65.4241 23.3186 65.1693C23.4971 64.9232 23.5644 64.6986 23.5206 64.4956C23.4736 64.2968 23.3422 64.1192 23.1263 63.9627Z" fill="#FF0000"/>
<path d="M17.0408 66.8512L16.1125 66.1294L16.1011 66.1182L16.0712 65.9318L17.776 64.1974C17.5497 64.1918 17.3173 64.1466 17.079 64.0619C16.8369 63.9735 16.615 63.8302 16.4134 63.6321C16.189 63.4115 16.0378 63.1545 15.9599 62.861C15.8781 62.5637 15.8942 62.243 16.0082 61.8989C16.1183 61.5509 16.3454 61.202 16.6893 60.8521C17.0108 60.525 17.3709 60.2918 17.7694 60.1526C18.1643 60.0172 18.5619 59.9931 18.9625 60.0801C19.363 60.1672 19.7249 60.3696 20.0482 60.6874C20.284 60.9192 20.4841 61.1645 20.6485 61.4233C20.8129 61.6821 20.8955 61.8568 20.8963 61.9473L16.8081 66.1065L17.2483 66.6401L17.0408 66.8512ZM16.9438 63.4691C17.1035 63.6261 17.2912 63.7358 17.5067 63.798C17.7222 63.8603 17.9166 63.8869 18.09 63.8779L20.165 61.7669C20.1982 61.6799 20.1726 61.5575 20.0883 61.3998C19.9964 61.2422 19.8744 61.0887 19.7222 60.9391C19.3951 60.6176 19.0149 60.4794 18.5816 60.5247C18.1446 60.5737 17.6961 60.8321 17.2362 61.2999C16.825 61.7183 16.6078 62.1181 16.5847 62.4992C16.554 62.8804 16.6737 63.2037 16.9438 63.4691Z" fill="#FF0000"/>
<path d="M12.9425 61.9014L13.3047 62.4814L13.0715 62.6638L12.2449 61.8275L12.2399 61.8212L12.2282 61.6374L16.9923 57.9116L16.5732 57.2847L16.8442 57.0728L18.1403 58.7302L17.8693 58.9421L17.3852 58.427L12.9425 61.9014Z" fill="#FF0000"/>
<path d="M15.3249 54.4877C15.6415 55.0193 15.7048 55.5372 15.5148 56.0414C15.3174 56.5439 14.9163 56.9752 14.3115 57.3355C13.922 57.5675 13.531 57.698 13.1386 57.7269C12.7461 57.7558 12.3882 57.6865 12.065 57.519C11.7344 57.3497 11.4695 57.0977 11.2702 56.7632C11.0273 56.3554 10.9559 55.9697 11.0558 55.606C11.153 55.2377 11.4161 54.9133 11.8451 54.633C12.1292 54.4638 12.339 54.3574 12.4745 54.314L13.9319 56.7608C14.413 56.4742 14.743 56.1318 14.9217 55.7336C15.0931 55.3335 15.0614 54.9365 14.8267 54.5424C14.7121 54.3499 14.5604 54.1734 14.3715 54.0127C14.1827 53.852 14.0074 53.7454 13.8457 53.6927L14.0345 53.4313C14.2511 53.4823 14.484 53.6074 14.733 53.8067C14.9748 54.0041 15.1721 54.2311 15.3249 54.4877ZM12.4953 55.0837C12.3909 55.1273 12.286 55.1805 12.1806 55.2432C11.8809 55.428 11.6841 55.6446 11.59 55.8931C11.4931 56.137 11.5307 56.4032 11.7027 56.6919C12.0766 57.3197 12.7106 57.4045 13.6048 56.9463L12.4953 55.0837Z" fill="#FF0000"/>
<path d="M9.05276 51.8326L8.54602 50.214L8.85903 50.116L9.13516 50.6499L11.1469 49.1231L12.1139 48.4096L10.9675 48.4164L8.40613 48.3214L8.4742 48.8869L8.16118 48.9849L7.70464 47.5267L8.01765 47.4287L8.23881 47.7869L12.5957 48.0743L12.7558 48.5858L9.35268 51.3447L9.36577 51.7346L9.05276 51.8326Z" fill="#FF0000"/>
<path d="M11.7438 43.8878C11.8387 44.4991 11.7037 45.0031 11.3389 45.3998C10.9679 45.7919 10.4346 46.042 9.73897 46.15C9.29099 46.2195 8.8796 46.1943 8.50477 46.0743C8.12995 45.9544 7.82395 45.7563 7.58679 45.48C7.34354 45.1994 7.19207 44.8666 7.13237 44.4819C7.05959 44.0129 7.13755 43.6284 7.36626 43.3284C7.59416 43.0232 7.95944 42.8208 8.46212 42.7212C8.78887 42.6705 9.02322 42.6503 9.16515 42.6607L9.60185 45.475C10.1552 45.3891 10.5893 45.195 10.9039 44.8925C11.2125 44.5855 11.3316 44.2054 11.2613 43.7522C11.227 43.5308 11.1523 43.3103 11.0372 43.0907C10.9222 42.8711 10.7995 42.7066 10.6692 42.5973L10.9421 42.4254C11.1239 42.5537 11.2931 42.7569 11.4495 43.0348C11.5999 43.3083 11.698 43.5927 11.7438 43.8878ZM8.89664 43.3824C8.78351 43.3838 8.66634 43.3938 8.54512 43.4126C8.1981 43.4719 7.9345 43.5992 7.75431 43.7944C7.5733 43.9844 7.50856 44.2454 7.56008 44.5775C7.67212 45.2995 8.22845 45.6153 9.22907 45.5248L8.89664 43.3824Z" fill="#FF0000"/>
<path d="M13.5561 39.6711C13.5617 40.9298 13.1645 41.5609 12.3645 41.5645C12.1245 41.5655 11.9055 41.4945 11.7076 41.3514C11.5096 41.203 11.3541 41.0276 11.2412 40.8255C11.109 41.0767 10.8882 41.2031 10.5789 41.2044C10.3816 41.2053 10.1973 41.1501 10.0261 41.0389C9.84965 40.9277 9.71567 40.7843 9.62422 40.6087C9.50801 40.8599 9.34356 41.058 9.13087 41.2029C8.91283 41.3425 8.6598 41.413 8.37181 41.4143C8.06248 41.4157 7.79277 41.3315 7.56267 41.1619C7.32725 40.9923 7.14759 40.7718 7.02371 40.5003C6.89981 40.2235 6.83719 39.9358 6.83586 39.6371C6.83364 39.1411 6.9412 38.7433 7.15853 38.4437C7.08351 38.364 7.01096 38.2417 6.94089 38.0767C6.86546 37.9063 6.82732 37.7252 6.82646 37.5332L6.82528 37.2692L7.41728 37.2665L7.42135 38.1785C7.63399 38.0229 7.89231 37.9444 8.19631 37.943C8.51097 37.9416 8.79132 38.0204 9.03737 38.1793C9.27808 38.3382 9.46571 38.5534 9.60026 38.8248C9.73478 39.0909 9.80277 39.3866 9.80422 39.7119C9.8052 39.9305 9.78209 40.1307 9.7349 40.3122C9.80999 40.4079 9.89834 40.4848 9.99993 40.543C10.0962 40.5959 10.195 40.6221 10.2963 40.6217C10.499 40.6208 10.64 40.5562 10.7194 40.4278C10.7988 40.2941 10.8378 40.0646 10.8364 39.7393L10.8321 38.7953C10.8299 38.2993 10.9243 37.9335 11.1152 37.698C11.3062 37.4572 11.575 37.336 11.9216 37.3344C12.2096 37.3331 12.4768 37.4359 12.723 37.6428C12.9746 37.8497 13.1759 38.1341 13.3268 38.4961C13.4778 38.8528 13.5542 39.2445 13.5561 39.6711ZM9.41187 39.6336C9.40884 38.9563 9.034 38.6193 8.28734 38.6226C7.57802 38.6258 7.22492 38.9794 7.22807 39.6834C7.23121 40.3874 7.58211 40.7378 8.28077 40.7347C8.61677 40.7332 8.89103 40.6413 9.10355 40.459C9.31074 40.2768 9.41351 40.0016 9.41187 39.6336ZM13.1479 39.633C13.1466 39.345 13.1027 39.0705 13.0162 38.8095C12.9351 38.5486 12.8141 38.3384 12.6534 38.1791C12.498 38.0198 12.3163 37.9406 12.1083 37.9416C11.943 37.9423 11.8098 37.9696 11.7087 38.0234C11.6076 38.0718 11.528 38.1708 11.47 38.3204C11.4173 38.4647 11.3916 38.6755 11.3928 38.9528L11.3973 39.9448C11.3984 40.2008 11.3833 40.3955 11.3519 40.529C11.6037 40.7892 11.8976 40.9185 12.2336 40.917C12.5376 40.9157 12.7665 40.8187 12.9203 40.626C13.0741 40.4333 13.15 40.1023 13.1479 39.633Z" fill="#FF0000"/>
<path d="M10.361 36.8354C9.84909 36.7606 9.51667 36.4534 9.36373 35.9136C9.20552 35.373 9.1736 34.7243 9.26797 33.9673L9.02258 33.9315C8.75343 33.8922 8.5381 33.8904 8.37658 33.9261C8.21055 33.9557 8.08321 34.0342 7.99457 34.1613C7.90065 34.2878 7.83558 34.475 7.79935 34.723C7.76005 34.9922 7.76643 35.2437 7.8185 35.4777C7.86606 35.7056 7.93286 35.931 8.01891 36.1538L7.64517 36.2771C7.60088 36.2113 7.54472 36.0791 7.4767 35.8806C7.40868 35.682 7.35507 35.4585 7.31587 35.2103C7.27667 34.962 7.27325 34.727 7.30562 34.5054C7.35803 34.1465 7.44939 33.8715 7.57972 33.6803C7.71082 33.4839 7.89374 33.357 8.12849 33.2997C8.36402 33.237 8.66912 33.2331 9.04381 33.2878L11.6561 33.6693L11.7278 33.1785L12.0207 33.2213C12.0574 33.5231 12.0612 33.7743 12.0319 33.9748C12.0134 34.1015 11.9796 34.1854 11.9304 34.2268C11.8865 34.2689 11.7934 34.2795 11.6509 34.2587L11.358 34.2159C11.4991 34.4306 11.6191 34.661 11.7179 34.9072C11.8122 35.1474 11.8385 35.4099 11.7969 35.6949C11.7414 36.0749 11.5896 36.3761 11.3415 36.5986C11.0942 36.8158 10.7674 36.8947 10.361 36.8354ZM11.3645 35.3892C11.3861 35.2414 11.3644 35.0577 11.2995 34.838C11.2345 34.6183 11.1484 34.4144 11.0412 34.2263L9.64003 34.0217C9.55205 34.661 9.57614 35.1604 9.71229 35.5198C9.84922 35.874 10.0734 36.0738 10.3847 36.1193C10.6855 36.1632 10.9157 36.1187 11.0753 35.9857C11.2296 35.8519 11.326 35.6531 11.3645 35.3892Z" fill="#FF0000"/>
<path d="M8.63159 31.2029L8.31844 31.7505L7.97475 31.6434L8.15489 30.6354L8.16203 30.6124L8.32947 30.5054L8.66552 30.6102L8.85408 30.6773C8.74987 30.4381 8.67743 30.1418 8.63676 29.7884C8.5961 29.4349 8.61703 29.1258 8.69956 28.8611C8.80113 28.5352 8.94255 28.3055 9.1238 28.1721C9.30155 28.032 9.53058 27.9693 9.81089 27.984C10.0877 27.9921 10.4425 28.0636 10.8753 28.1985L13.0367 28.8722L13.2687 28.3161L13.5972 28.4184L13.0663 30.1216L12.7379 30.0192L12.8439 29.4909L10.6748 28.8148C10.354 28.7148 10.0949 28.6591 9.89728 28.6478C9.70128 28.6314 9.53761 28.6726 9.40629 28.7713C9.27145 28.8633 9.16674 29.029 9.09215 29.2683C9.02866 29.472 9.01054 29.7094 9.03778 29.9804C9.06661 30.2464 9.12278 30.4873 9.2063 30.7033L12.1697 31.627L12.4046 31.0885L12.733 31.1909L12.2069 32.8788L11.8784 32.7764L11.9768 32.2456L8.63159 31.2029Z" fill="#FF0000"/>
<path d="M11.9048 23.2678L11.4975 23.9657L11.2212 23.8044L11.4972 23.0299L11.1586 22.8323C10.8822 22.671 10.6706 22.4518 10.5236 22.1746C10.372 21.8947 10.293 21.6016 10.2865 21.2952C10.2827 20.9842 10.3534 20.7044 10.4986 20.4557C10.5846 20.3083 10.6783 20.19 10.7797 20.101L11.3463 20.4316C11.2971 20.4524 11.2251 20.5122 11.1303 20.6113C11.0381 20.7057 10.949 20.8266 10.863 20.974C10.7205 21.2181 10.6815 21.4331 10.746 21.6189C10.8104 21.8047 10.997 21.9877 11.3056 22.1678L11.8238 22.4703L12.4085 21.4684L12.8161 21.7063L12.2314 22.7082L15.3061 24.5026L15.8142 23.7432L16.1113 23.9166L14.9701 25.8719L14.673 25.6985L14.9726 25.0582L11.9048 23.2678Z" fill="#FF0000"/>
<path d="M15.8293 22.2586C15.4202 21.942 15.2816 21.5111 15.4136 20.9658C15.5413 20.4173 15.8323 19.8365 16.2864 19.2236L16.0902 19.0718C15.8751 18.9053 15.6885 18.798 15.5302 18.7497C15.3711 18.694 15.2216 18.6997 15.0819 18.7669C14.938 18.8309 14.7894 18.962 14.6359 19.1602C14.4695 19.3754 14.3514 19.5976 14.2818 19.827C14.2113 20.0489 14.1587 20.278 14.1242 20.5143L13.7381 20.438C13.7319 20.359 13.7479 20.2163 13.7862 20.0099C13.8245 19.8035 13.8876 19.5826 13.9754 19.3471C14.0633 19.1116 14.1757 18.9053 14.3128 18.7281C14.5348 18.4413 14.7495 18.2467 14.9569 18.1442C15.1676 18.0375 15.3893 18.0168 15.6219 18.0822C15.8578 18.1434 16.1255 18.2898 16.425 18.5216L18.5128 20.1373L18.8164 19.745L19.0505 19.9262C18.9342 20.2071 18.8141 20.4277 18.69 20.588C18.6117 20.6893 18.541 20.7458 18.4779 20.7576C18.419 20.7728 18.3326 20.7362 18.2187 20.6481L17.9846 20.467C18.0021 20.7233 17.9933 20.9829 17.9584 21.2459C17.9226 21.5013 17.8165 21.743 17.6402 21.9707C17.4052 22.2744 17.125 22.4622 16.7996 22.5341C16.4775 22.6018 16.1541 22.51 15.8293 22.2586ZM17.4139 21.4921C17.5052 21.374 17.5766 21.2033 17.628 20.98C17.6794 20.7568 17.7046 20.5369 17.7036 20.3203L16.5837 19.4537C16.193 19.9673 15.9686 20.4141 15.9106 20.7941C15.8559 21.1698 15.9529 21.454 16.2018 21.6466C16.4422 21.8326 16.6646 21.9069 16.8689 21.8695C17.069 21.8288 17.2506 21.703 17.4139 21.4921Z" fill="#FF0000"/>
<path d="M19.4802 18.7752C19.5854 18.7994 19.7291 18.7714 19.9114 18.6912C20.0936 18.611 20.2613 18.4965 20.4144 18.348C20.8813 17.8949 20.9477 17.4961 20.6134 17.1516C20.4611 16.9947 20.2735 16.9315 20.0505 16.9621C19.8238 16.9889 19.4959 17.0952 19.067 17.2811C18.6492 17.471 18.2953 17.5581 18.0051 17.5424C17.7149 17.5267 17.4454 17.3907 17.1965 17.1342C17.0368 16.9696 16.9473 16.7778 16.928 16.5588C16.9124 16.336 16.9573 16.1104 17.0626 15.8819C17.168 15.6459 17.3202 15.4313 17.5192 15.2381C17.7144 15.0487 17.8938 14.9081 18.0573 14.8163C18.2247 14.7207 18.3976 14.6347 18.576 14.5581L19.239 15.2413L18.9577 15.5143L18.4477 15.1955C18.3726 15.1718 18.2628 15.1965 18.1184 15.2698C17.9778 15.3393 17.8425 15.4372 17.7123 15.5635C17.5286 15.7418 17.4202 15.9288 17.3871 16.1244C17.3503 16.3162 17.3987 16.481 17.5324 16.6188C17.6513 16.7413 17.7784 16.8148 17.9138 16.8395C18.0492 16.8641 18.1832 16.8605 18.3157 16.8285C18.4444 16.7928 18.6132 16.7331 18.8219 16.6494L18.9755 16.5895C19.2754 16.462 19.5294 16.3715 19.7377 16.3181C19.9422 16.2608 20.1479 16.2507 20.3548 16.2878C20.558 16.321 20.7469 16.4275 20.9214 16.6074C21.1963 16.8907 21.3045 17.2204 21.246 17.5967C21.1877 17.9655 20.9786 18.3244 20.6188 18.6735C20.4543 18.8332 20.2407 18.9884 19.9782 19.1391C19.7157 19.2898 19.5068 19.3885 19.3514 19.4352L18.6495 18.7118L18.9595 18.411L19.4802 18.7752Z" fill="#FF0000"/>
<path d="M19.2737 11.739L18.6514 12.0923L18.4801 11.8508L19.367 11.0548L19.3801 11.0455L19.5642 11.0424L20.666 12.5953L21.0372 13.1461C21.0869 12.9212 21.1962 12.6605 21.3651 12.3641C21.5341 12.0676 21.7404 11.833 21.984 11.6602C22.258 11.4657 22.5082 11.3667 22.7345 11.3631C22.9608 11.3595 23.1831 11.447 23.4014 11.6256C23.6166 11.7999 23.8569 12.0741 24.1223 12.4481L25.4277 14.2881L25.941 14.0023L26.1401 14.2829L24.6786 15.3198L24.4795 15.0393L24.8992 14.663L23.5892 12.8166C23.3916 12.5382 23.2178 12.3346 23.0675 12.2058C22.9216 12.0739 22.7665 12.0074 22.6022 12.0062C22.4379 12.0051 22.2514 12.0786 22.0426 12.2267C21.8686 12.3502 21.7124 12.5264 21.5741 12.7553C21.4326 12.9799 21.3274 13.205 21.2585 13.4304L23.0593 15.9685L23.5791 15.6781L23.7782 15.9587L22.3624 16.9632L22.1633 16.6827L22.5419 16.3453L19.2737 11.739Z" fill="#FF0000"/>
<path d="M25.007 9.04949C24.7514 9.18225 24.5535 9.11375 24.4134 8.84397C24.3421 8.70672 24.3246 8.5746 24.3608 8.44761C24.3945 8.31589 24.48 8.21439 24.6173 8.14309C24.7592 8.06933 24.8819 8.0567 24.9852 8.1052C25.0861 8.14897 25.166 8.22764 25.225 8.34123C25.3012 8.48795 25.3212 8.6248 25.285 8.75179C25.2511 8.87159 25.1608 8.96959 25.0141 9.04581L25.007 9.04949ZM25.4104 10.3815L24.794 10.5484L24.628 10.229L25.5416 9.61016L25.5558 9.60278L25.7568 9.64261L27.6044 13.1994L28.2478 12.9282L28.4064 13.2335L26.589 14.1776L26.4304 13.8723L27.0257 13.491L25.4104 10.3815Z" fill="#FF0000"/>
<path d="M28.6204 10.6744C28.4618 10.2383 28.4126 9.82206 28.4727 9.42564C28.5379 9.02739 28.6864 8.68679 28.9183 8.40382C29.1553 8.11903 29.4367 7.9174 29.7624 7.79893C30.394 7.56927 30.9348 7.60526 31.385 7.9069C31.8402 8.20672 32.1845 8.67741 32.4178 9.31898C32.5764 9.75504 32.6231 10.1722 32.5579 10.5704C32.4978 10.9669 32.3492 11.3075 32.1123 11.5923C31.8804 11.8752 31.6015 12.0759 31.2757 12.1944C30.6442 12.4241 30.1008 12.389 29.6456 12.0892C29.1954 11.7875 28.8537 11.3159 28.6204 10.6744ZM31.1711 11.7898C31.5571 11.6494 31.8015 11.3931 31.9045 11.0209C32.0075 10.6486 31.956 10.1793 31.75 9.61288C31.5532 9.07156 31.2941 8.66352 30.9729 8.38877C30.6517 8.11401 30.2855 8.05136 29.8745 8.20082C29.4886 8.34116 29.2416 8.59838 29.1336 8.97248C29.0307 9.34475 29.0822 9.81408 29.2881 10.3805C29.4868 10.9268 29.7468 11.3373 30.068 11.6121C30.3924 11.88 30.7601 11.9393 31.1711 11.7898Z" fill="#FF0000"/>
<path d="M33.4149 7.40968L32.7843 7.39108L32.7171 7.03741L33.6914 6.72197L33.7149 6.71749L33.8882 6.81486L33.9539 7.16067L33.9834 7.35865C34.1454 7.15414 34.3727 6.95078 34.6655 6.74857C34.9582 6.54636 35.2408 6.41937 35.5132 6.36759C35.8486 6.30386 36.1178 6.32056 36.3208 6.4177C36.5281 6.5086 36.6912 6.68118 36.8101 6.93545C36.9332 7.18349 37.0371 7.53019 37.1217 7.97555L37.5444 10.1997L38.1443 10.1427L38.2086 10.4807L36.4559 10.8138L36.3917 10.4758L36.9078 10.3207L36.4836 8.08868C36.4209 7.75858 36.348 7.50371 36.265 7.32405C36.1873 7.14339 36.0739 7.01835 35.925 6.94893C35.7804 6.87328 35.5849 6.85885 35.3386 6.90565C35.129 6.94548 34.9111 7.04119 34.6847 7.19278C34.4636 7.34338 34.2775 7.50634 34.1262 7.68166L34.7057 10.7311L35.2914 10.6849L35.3556 11.0229L33.6187 11.353L33.5545 11.015L34.0691 10.8521L33.4149 7.40968Z" fill="#FF0000"/>
<path d="M41.0451 4.04149L42.2189 3.97283L42.2349 3.97375L42.3802 4.0943L42.2405 6.52228C42.4144 6.37737 42.619 6.25825 42.854 6.16494C43.0944 6.07194 43.3557 6.03355 43.6379 6.04979C43.9521 6.06788 44.2352 6.16163 44.4872 6.33106C44.7445 6.50079 44.9437 6.75265 45.0848 7.08664C45.2311 7.42094 45.2902 7.83301 45.262 8.32287C45.2357 8.78078 45.1184 9.19339 44.9103 9.56071C44.7025 9.9227 44.4193 10.2029 44.0606 10.4013C43.702 10.5997 43.2963 10.6858 42.8437 10.6598C42.5136 10.6408 42.2015 10.5881 41.9073 10.5017C41.6131 10.4153 41.4359 10.3384 41.3757 10.2708L41.7108 4.44841L41.028 4.337L41.0451 4.04149ZM43.3463 6.52182C43.1227 6.50895 42.9093 6.55009 42.7062 6.64524C42.5031 6.74039 42.3392 6.84849 42.2147 6.96954L42.0447 9.92465C42.077 10.012 42.1769 10.0872 42.3442 10.1502C42.5171 10.2083 42.7101 10.2434 42.9231 10.2557C43.381 10.282 43.7581 10.1354 44.0542 9.81594C44.3507 9.4911 44.5178 9.00123 44.5555 8.34631C44.5892 7.76061 44.4892 7.3168 44.2555 7.01487C44.0274 6.70793 43.7244 6.54358 43.3463 6.52182Z" fill="#FF0000"/>
<path d="M45.6856 10.5446L46.3224 10.6242L47.0209 7.16605L46.444 6.91078L46.5153 6.55791L47.5366 6.6336L47.5522 6.63676L47.6759 6.79232L47.6505 6.91779L47.5145 7.51059L47.5302 7.51376C47.5427 7.50541 47.6265 7.44072 47.7816 7.31969C47.9429 7.19448 48.1627 7.08926 48.4411 7.00402C48.7247 6.91984 48.9946 6.90362 49.2508 6.95536C49.3344 6.97225 49.4107 6.99855 49.4797 7.03424L49.3403 7.72431C49.3226 7.7044 49.2787 7.67921 49.2087 7.64875C49.1439 7.61934 49.0723 7.59671 48.9939 7.58087C48.6959 7.52069 48.4334 7.51391 48.2063 7.56054C47.9792 7.60718 47.7636 7.67789 47.5595 7.77268L46.9592 10.7447L47.9895 11.0181L47.9245 11.3396L45.6191 10.8739L45.6856 10.5446Z" fill="#FF0000"/>
<path d="M49.7435 10.6279C49.9147 10.1397 50.2798 9.87215 50.8389 9.82518C51.3997 9.77316 52.0426 9.8658 52.7676 10.1031L52.8497 9.86906C52.9397 9.61238 52.9826 9.40136 52.9784 9.236C52.981 9.06736 52.9284 8.92739 52.8205 8.81607C52.7143 8.69972 52.543 8.60008 52.3064 8.51712C52.0498 8.42711 51.8016 8.38531 51.562 8.3917C51.3292 8.39484 51.0952 8.41735 50.8601 8.45924L50.8105 8.06883C50.8835 8.03791 51.024 8.00805 51.2319 7.97923C51.4398 7.95041 51.6694 7.94048 51.9206 7.94944C52.1717 7.9584 52.403 7.99995 52.6144 8.07407C52.9566 8.19409 53.2091 8.33633 53.3719 8.50078C53.5397 8.667 53.6293 8.8708 53.6407 9.11219C53.6572 9.35534 53.6027 9.65558 53.4774 10.0129L52.6038 12.5042L53.0718 12.6683L52.9739 12.9476C52.6706 12.926 52.4233 12.8817 52.2321 12.8147C52.1113 12.7723 52.0353 12.723 52.0042 12.6669C51.9712 12.6158 51.9786 12.5223 52.0262 12.3864L52.1242 12.1071C51.8865 12.2046 51.6374 12.2783 51.3769 12.3282C51.1231 12.3749 50.8604 12.3506 50.5886 12.2553C50.2262 12.1282 49.9596 11.9216 49.7886 11.6356C49.6227 11.3513 49.6076 11.0155 49.7435 10.6279ZM50.9713 11.8893C51.1122 11.9387 51.2967 11.9525 51.5247 11.9308C51.7528 11.909 51.9694 11.8635 52.1746 11.7941L52.6432 10.4579C52.0324 10.2494 51.5376 10.1776 51.1588 10.2426C50.785 10.3093 50.546 10.4911 50.4419 10.788C50.3413 11.0749 50.341 11.3094 50.4411 11.4914C50.5429 11.6684 50.7196 11.801 50.9713 11.8893Z" fill="#FF0000"/>
<path d="M55.6027 10.0066L55.125 9.59463L55.2958 9.27774L56.2509 9.64719L56.272 9.65858L56.345 9.84338L56.178 10.1532L56.0761 10.3255C56.3307 10.2689 56.6354 10.2544 56.9901 10.282C57.3448 10.3097 57.6443 10.3893 57.8884 10.5209C58.1888 10.6828 58.3872 10.8655 58.4836 11.0689C58.5872 11.2702 58.6049 11.507 58.5369 11.7793C58.4761 12.0495 58.3381 12.3841 58.123 12.7831L57.0487 14.776L57.5502 15.11L57.387 15.4128L55.8166 14.5662L55.9799 14.2634L56.4783 14.4685L57.5564 12.4686C57.7158 12.1728 57.82 11.929 57.8688 11.7373C57.9224 11.548 57.9132 11.3795 57.8414 11.2317C57.7768 11.0818 57.6342 10.9473 57.4136 10.8284C57.2258 10.7272 56.9963 10.664 56.725 10.639C56.4584 10.6164 56.2112 10.6255 55.9832 10.6662L54.5103 13.3985L54.994 13.732L54.8308 14.0348L53.2745 13.1958L53.4377 12.893L53.9399 13.091L55.6027 10.0066Z" fill="#FF0000"/>
<path d="M58.9569 16.8391C58.7082 16.6464 58.5274 16.4051 58.4146 16.1153C58.3051 15.8213 58.2884 15.4946 58.3644 15.1352C58.4405 14.7758 58.6255 14.4064 58.9195 14.027C59.2005 13.6644 59.5274 13.3949 59.9004 13.2183C60.2766 13.0375 60.665 12.9674 61.0654 13.0078C61.4734 13.0473 61.8587 13.2075 62.2212 13.4885C62.4531 13.6681 62.6569 13.8666 62.8327 14.0838L63.8029 12.8317L63.1943 12.2588L63.3707 12.0312L64.4911 12.7273L64.5037 12.7371L64.5553 12.9187L60.8312 17.7247L61.2169 18.0236L61.0258 18.2702C61.0015 18.2581 60.9168 18.2195 60.7716 18.1542C60.6265 18.089 60.4844 18.0025 60.3453 17.8947C60.2483 17.8196 60.1918 17.7488 60.1758 17.6824C60.164 17.6193 60.2022 17.5308 60.2904 17.417L60.4619 17.1956C60.2201 17.2377 59.9668 17.2337 59.702 17.1837C59.4413 17.1369 59.193 17.0221 58.9569 16.8391ZM59.4743 16.6024C59.6556 16.7429 59.859 16.833 60.0845 16.8729C60.3175 16.9117 60.5149 16.9095 60.6767 16.8662L62.4799 14.5391C62.4919 14.4539 62.4426 14.3347 62.3319 14.1815C62.2255 14.0315 62.0921 13.8945 61.9319 13.7703C61.5694 13.4894 61.1772 13.3947 60.7555 13.4862C60.337 13.5735 59.9236 13.8806 59.5152 14.4076C59.1493 14.8798 58.9752 15.3048 58.9927 15.6827C59.0102 16.0607 59.1707 16.3672 59.4743 16.6024Z" fill="#FF0000"/>
<path d="M64.9645 20.4861C64.7125 20.1965 64.6049 19.8941 64.6419 19.5791C64.6789 19.2642 64.8543 18.9701 65.1681 18.6971C65.49 18.417 65.8092 18.2841 66.1257 18.2986C66.4498 18.3135 66.7396 18.4678 66.9952 18.7615C67.0792 18.8581 67.1497 18.9594 67.2066 19.0654C67.271 19.1719 67.3216 19.287 67.3584 19.4105L66.9674 19.5705C66.9331 19.466 66.8907 19.3686 66.8403 19.2781C66.7933 19.1917 66.7366 19.1103 66.6701 19.0338C66.516 18.8568 66.3404 18.7728 66.1432 18.7818C65.9535 18.7913 65.744 18.8958 65.5147 19.0954C65.2974 19.2844 65.167 19.4757 65.1233 19.6693C65.0836 19.8593 65.1373 20.0388 65.2844 20.2078C65.3544 20.2883 65.438 20.364 65.5351 20.435C65.6398 20.5065 65.756 20.5751 65.8838 20.6407L65.5579 20.9243C65.4336 20.8627 65.3229 20.7964 65.2258 20.7254C65.1286 20.6544 65.0415 20.5747 64.9645 20.4861ZM63.3442 21.6098C63.0466 21.2678 62.8309 20.8899 62.697 20.4762C62.5632 20.0624 62.5092 19.6428 62.5349 19.2174C62.5682 18.7925 62.6797 18.3844 62.8694 17.9931C63.0591 17.6018 63.325 17.2573 63.6669 16.9598C64.013 16.6587 64.3908 16.443 64.8006 16.3126C65.2144 16.1788 65.632 16.1265 66.0533 16.1558C66.4822 16.1855 66.8923 16.2953 67.2836 16.485C67.675 16.6747 68.0194 16.9406 68.317 17.2826C68.6181 17.6286 68.8338 18.0064 68.9641 18.4162C69.098 18.83 69.1482 19.2493 69.115 19.6742C69.0892 20.0996 68.9815 20.5079 68.7918 20.8992C68.6061 21.2871 68.3402 21.6315 67.9942 21.9326C67.6522 22.2302 67.2743 22.4459 66.8606 22.5797C66.4468 22.7136 66.0254 22.7656 65.5966 22.7358C65.1752 22.7066 64.7688 22.5971 64.3775 22.4074C63.9897 22.2217 63.6452 21.9558 63.3442 21.6098ZM63.6821 21.3157C63.9412 21.6135 64.2371 21.8438 64.5698 22.0068C64.91 22.1703 65.2645 22.2648 65.6331 22.2904C66.0018 22.316 66.3622 22.2711 66.7142 22.1556C67.0738 22.0407 67.4024 21.8537 67.7001 21.5946C67.9979 21.3356 68.2265 21.0377 68.3859 20.701C68.5529 20.3648 68.6492 20.0123 68.6748 19.6436C68.7004 19.2749 68.6537 18.9126 68.5348 18.5565C68.4234 18.201 68.2381 17.8744 67.979 17.5766C67.72 17.2789 67.4203 17.0483 67.0801 16.8848C66.7474 16.7218 66.3967 16.6276 66.028 16.602C65.6593 16.5764 65.2952 16.621 64.9357 16.736C64.5836 16.8514 64.2588 17.0386 63.961 17.2977C63.6633 17.5568 63.4309 17.8544 63.264 18.1906C63.1045 18.5273 63.012 18.8801 62.9864 19.2487C62.9608 19.6174 63.0037 19.9796 63.1151 20.3351C63.234 20.6911 63.423 21.018 63.6821 21.3157Z" fill="#FF0000"/>
<path d="M66.4804 24.1917C66.4321 24.2883 66.4254 24.4346 66.4603 24.6306C66.4953 24.8266 66.5669 25.0166 66.6751 25.2004C67.0053 25.7611 67.3771 25.9197 67.7908 25.6761C67.9792 25.5652 68.0849 25.3978 68.1078 25.1739C68.1352 24.9473 68.1093 24.6036 68.0299 24.1428C67.944 23.6921 67.9429 23.3276 68.0266 23.0493C68.1103 22.771 68.3061 22.5412 68.6141 22.3599C68.8117 22.2436 69.0192 22.2018 69.2366 22.2347C69.4568 22.2722 69.6654 22.3691 69.8626 22.5253C70.0671 22.6834 70.2397 22.882 70.3804 23.121C70.5184 23.3553 70.6127 23.5628 70.6634 23.7435C70.7167 23.9287 70.7595 24.117 70.7918 24.3084L69.9714 24.7914L69.7725 24.4536L70.2027 24.0333C70.2435 23.9659 70.2454 23.8534 70.2083 23.6958C70.1739 23.5427 70.1107 23.3881 70.0187 23.2318C69.8888 23.0112 69.7327 22.8618 69.5504 22.7834C69.3727 22.7024 69.2011 22.7105 69.0357 22.8079C68.8886 22.8945 68.7871 23.0007 68.7312 23.1265C68.6753 23.2522 68.6472 23.3833 68.647 23.5196C68.6514 23.6531 68.6695 23.8312 68.7015 24.0537L68.7235 24.2172C68.7766 24.5387 68.8046 24.8069 68.8074 25.0219C68.8148 25.2342 68.776 25.4364 68.6912 25.6287C68.611 25.8183 68.4629 25.9767 68.2468 26.1039C67.9067 26.3041 67.5608 26.3314 67.2089 26.1858C66.8643 26.0421 66.5649 25.7542 66.3105 25.3222C66.1942 25.1246 66.0938 24.8805 66.0093 24.5898C65.9248 24.2991 65.8782 24.0728 65.8695 23.9109L66.7381 23.3994L66.9573 23.7717L66.4804 24.1917Z" fill="#FF0000"/>
<path d="M68.0304 28.834C67.9199 28.5738 67.8954 28.3524 67.9569 28.1699C68.0233 27.9852 68.2111 27.8271 68.5203 27.6957L71.4286 26.4599L71.1909 25.9003L71.478 25.7783C71.6363 26.0008 71.7361 26.1265 71.7773 26.1553C71.8478 26.2122 71.9469 26.2339 72.0744 26.2203C72.1605 26.2185 72.3097 26.2014 72.522 26.1692C72.7343 26.1369 72.8997 26.1101 73.0181 26.0888L73.162 26.4274L72.1165 26.8717L72.6702 28.1749L72.2358 28.3595L71.6821 27.0563L69.2965 28.07C69.0118 28.191 68.8147 28.2863 68.7053 28.356C68.6007 28.4236 68.5438 28.4942 68.5344 28.5677C68.5251 28.6412 68.5517 28.7515 68.6143 28.8988C68.6748 29.0411 68.7622 29.1923 68.8766 29.3524C68.9909 29.5124 69.089 29.6272 69.1707 29.6968L68.9316 29.9114C68.7952 29.836 68.6301 29.686 68.4361 29.4613C68.247 29.2345 68.1118 29.0254 68.0304 28.834Z" fill="#FF0000"/>
<path d="M70.0343 30.5923C70.5332 30.4555 70.961 30.6037 71.3176 31.0368C71.6793 31.4685 71.9687 32.05 72.1858 32.7813L72.425 32.7157C72.6873 32.6437 72.8853 32.559 73.0189 32.4615C73.1591 32.3678 73.2443 32.2449 73.2745 32.0928C73.3099 31.9393 73.2944 31.7417 73.2281 31.5C73.1562 31.2377 73.0494 31.0098 72.9079 30.8163C72.7729 30.6266 72.6213 30.447 72.4532 30.2774L72.7461 30.0146C72.813 30.057 72.9175 30.1556 73.0594 30.3102C73.2014 30.4649 73.3401 30.648 73.4756 30.8597C73.6111 31.0714 73.7084 31.2853 73.7677 31.5013C73.8636 31.8511 73.8902 32.1397 73.8475 32.367C73.8062 32.5996 73.6895 32.7892 73.4974 32.9359C73.3068 33.0877 73.0289 33.2137 72.6637 33.3138L70.1177 34.0121L70.2489 34.4904L69.9634 34.5687C69.8087 34.3069 69.7045 34.0784 69.6509 33.8829C69.6171 33.7595 69.6144 33.669 69.6428 33.6114C69.6661 33.5552 69.7472 33.5081 69.8861 33.47L70.1716 33.3917C69.9562 33.2517 69.7539 33.0887 69.5647 32.9028C69.382 32.7207 69.2525 32.4907 69.1764 32.2129C69.0748 31.8426 69.0931 31.5058 69.2311 31.2025C69.3705 30.9043 69.6383 30.701 70.0343 30.5923ZM69.695 32.3196C69.7345 32.4636 69.8281 32.6232 69.9757 32.7984C70.1233 32.9736 70.2839 33.1259 70.4577 33.2552L71.8232 32.8807C71.6474 32.2598 71.4251 31.8119 71.1562 31.5373C70.8887 31.2678 70.6032 31.1746 70.2998 31.2578C70.0066 31.3382 69.8136 31.4713 69.7208 31.6572C69.6331 31.8416 69.6245 32.0624 69.695 32.3196Z" fill="#FF0000"/>
<path d="M73.8774 35.0584L73.9447 34.4311L74.3025 34.3914L74.5418 35.3871L74.5444 35.411L74.434 35.5762L74.0841 35.615L73.8844 35.6291C74.0758 35.8064 74.261 36.0488 74.44 36.3563C74.619 36.6637 74.7238 36.9553 74.7544 37.2309C74.7921 37.5702 74.7546 37.8373 74.6421 38.0322C74.5355 38.2318 74.3508 38.3811 74.0881 38.48C73.8313 38.5836 73.4776 38.6605 73.0271 38.7105L70.7769 38.9602L70.7874 39.5627L70.4455 39.6006L70.2487 37.8275L70.5906 37.7896L70.7054 38.3161L72.9635 38.0655C73.2975 38.0285 73.5572 37.9755 73.7428 37.9066C73.9289 37.843 74.0623 37.7397 74.143 37.5966C74.2296 37.4582 74.2591 37.2644 74.2314 37.0153C74.2079 36.8032 74.1293 36.5785 73.9957 36.3412C73.8626 36.1091 73.7145 35.9109 73.5514 35.7465L70.4663 36.0889L70.4671 36.6764L70.1252 36.7143L69.9302 34.9571L70.2721 34.9192L70.3948 35.4449L73.8774 35.0584Z" fill="#FF0000"/>
<path d="M70.165 41.7033C70.182 41.3891 70.2777 41.1032 70.4519 40.8456C70.6315 40.5883 70.8907 40.3887 71.2296 40.2469C71.5684 40.1051 71.9775 40.0472 72.4568 40.0732C72.9148 40.0981 73.3224 40.2137 73.6798 40.4201C74.0424 40.6267 74.321 40.9063 74.5155 41.2587C74.715 41.6167 74.8023 42.0247 74.7775 42.4827C74.7615 42.7756 74.7142 43.0561 74.6356 43.3242L76.2172 43.4102L76.3423 42.5838L76.6299 42.5994L76.6945 43.9168L76.6936 43.9328L76.5735 44.0785L70.5025 43.7486L70.476 44.2359L70.1644 44.2189C70.1606 44.192 70.1442 44.1003 70.1153 43.9439C70.0864 43.7874 70.0767 43.6213 70.0863 43.4456C70.093 43.3231 70.119 43.2364 70.1645 43.1854C70.2097 43.1398 70.3042 43.1209 70.448 43.1287L70.7276 43.1439C70.5555 42.969 70.4147 42.7584 70.3053 42.5121C70.1955 42.2711 70.1487 42.0015 70.165 41.7033ZM70.6539 41.9942C70.6414 42.2232 70.683 42.4418 70.7785 42.6499C70.879 42.8637 70.9931 43.0248 71.1208 43.1332L74.0604 43.293C74.1373 43.2544 74.2073 43.1461 74.2704 42.9679C74.3332 42.7951 74.3701 42.6074 74.3811 42.4051C74.406 41.9471 74.2609 41.5707 73.9457 41.2758C73.6359 40.9812 73.1482 40.8158 72.4825 40.7797C71.886 40.7472 71.4374 40.8457 71.1365 41.0751C70.8356 41.3044 70.6747 41.6108 70.6539 41.9942Z" fill="#FF0000"/>
<path d="M72.1585 45.159C72.6121 45.2564 72.9909 45.4359 73.2948 45.6975C73.5975 45.9643 73.8071 46.2711 73.9236 46.6179C74.0389 46.97 74.0602 47.3155 73.9875 47.6544C73.8465 48.3115 73.5286 48.7505 73.0338 48.9716C72.538 49.1979 71.9563 49.2395 71.2888 49.0962C70.8352 48.9988 70.4569 48.8167 70.1542 48.5499C69.8503 48.2883 69.6407 47.9815 69.5254 47.6294C69.4089 47.2826 69.387 46.9397 69.4598 46.6008C69.6008 45.9437 69.9193 45.5021 70.4151 45.2758C70.9099 45.0547 71.491 45.0158 72.1585 45.159ZM69.8581 46.7272C69.7719 47.1287 69.8592 47.472 70.1198 47.757C70.3805 48.0421 70.8054 48.2479 71.3947 48.3743C71.9578 48.4952 72.4412 48.4926 72.8446 48.3664C73.2481 48.2403 73.4957 47.9634 73.5875 47.5358C73.6737 47.1343 73.587 46.7884 73.3274 46.4982C73.0668 46.2131 72.6418 46.0074 72.0526 45.8809C71.4842 45.7589 70.9983 45.7609 70.5948 45.8871C70.1955 46.0196 69.9499 46.2996 69.8581 46.7272Z" fill="#FF0000"/>
<path d="M73.5127 51.777C73.6092 51.5056 73.8007 51.4209 74.0871 51.5228C74.2329 51.5746 74.3358 51.6593 74.3958 51.7769C74.4609 51.8963 74.4675 52.0288 74.4157 52.1746C74.3621 52.3253 74.2809 52.4182 74.1723 52.4531C74.0686 52.4898 73.9565 52.4867 73.8359 52.4438C73.6802 52.3884 73.5722 52.3019 73.5122 52.1843C73.4553 52.0735 73.4546 51.9403 73.51 51.7845L73.5127 51.777ZM72.3096 51.0773L72.6469 50.535L72.9861 50.6556L72.7394 51.7311L72.734 51.7462L72.5598 51.8541L68.7836 50.5108L68.4975 51.1478L68.1734 51.0325L68.8598 49.103L69.1839 49.2183L69.0083 49.903L72.3096 51.0773Z" fill="#FF0000"/>
<path d="M72.8725 55.2886L73.2326 54.7072L73.4992 54.8357L73.1147 55.947L73.1112 55.9542L72.9515 56.046L67.5032 53.4204L67.1262 54.0735L66.8164 53.9242L67.7297 52.0288L68.0396 52.1781L67.7917 52.8401L72.8725 55.2886Z" fill="#FF0000"/>
<path d="M65.8583 55.3531C65.9223 55.2484 66.0107 55.1805 66.1234 55.1495C66.2407 55.1212 66.3563 55.1418 66.47 55.2113C66.5974 55.2892 66.6779 55.3978 66.7115 55.5371C66.7424 55.681 66.7216 55.8121 66.6493 55.9304C66.5742 56.0533 66.4821 56.122 66.3732 56.1367C66.2614 56.1559 66.1509 56.1321 66.0417 56.0653C65.9143 55.9874 65.8338 55.8788 65.8002 55.7395C65.7666 55.6002 65.786 55.4714 65.8583 55.3531Z" fill="#FF0000"/>
<path d="M66.5969 58.5155C66.9602 58.8042 67.2199 59.1331 67.3761 59.5024C67.5289 59.8759 67.5806 60.2439 67.531 60.6064C67.4781 60.973 67.3438 61.2921 67.1281 61.5635C66.7101 62.0897 66.2304 62.342 65.6889 62.3205C65.1441 62.3032 64.6045 62.0822 64.0699 61.6575C63.7066 61.3689 63.4486 61.0379 63.2957 60.6644C63.1395 60.2951 63.0879 59.9271 63.1408 59.5604C63.1904 59.1979 63.323 58.881 63.5387 58.6096C63.9567 58.0834 64.4381 57.829 64.9829 57.8463C65.5244 57.8678 66.0623 58.0909 66.5969 58.5155ZM63.8395 58.8997C63.584 59.2212 63.5098 59.5675 63.6169 59.9387C63.7239 60.3098 64.0133 60.6828 64.4852 61.0577C64.9362 61.416 65.3705 61.6282 65.788 61.6942C66.2055 61.7603 66.5503 61.6221 66.8223 61.2797C67.0778 60.9581 67.1537 60.6097 67.0499 60.2344C66.9429 59.8633 66.6535 59.4903 66.1816 59.1154C65.7264 58.7538 65.2901 58.5399 64.8725 58.4739C64.4559 58.4153 64.1115 58.5572 63.8395 58.8997Z" fill="#FF0000"/>
<path d="M64.1241 63.9353L64.7068 63.3755L64.9285 63.6063L64.451 64.2757L64.7226 64.5584C64.9443 64.7891 65.0879 65.058 65.1534 65.3648C65.2226 65.6755 65.2183 65.9791 65.1407 66.2755C65.0592 66.5756 64.9146 66.8254 64.7069 67.0249C64.5839 67.1432 64.4614 67.2312 64.3395 67.2891L63.8851 66.816C63.938 66.8096 64.0236 66.7717 64.142 66.7024C64.2564 66.6368 64.3752 66.5449 64.4983 66.4267C64.7022 66.2308 64.7985 66.0347 64.7874 65.8384C64.7762 65.642 64.6469 65.415 64.3994 65.1573L63.9837 64.7246L63.1471 65.5281L62.8202 65.1877L63.6567 64.3842L61.1906 61.8167L60.4941 62.4081L60.2558 62.1601L61.8885 60.5917L62.1268 60.8398L61.6634 61.3736L64.1241 63.9353Z" fill="#FF0000"/>
<path d="M61.2196 66.447L61.8627 65.9578L62.0564 66.2125L61.5053 66.8227L61.7427 67.1347C61.9364 67.3894 62.0482 67.6729 62.0781 67.9852C62.1112 68.3018 62.0721 68.6029 61.961 68.8884C61.8456 69.1772 61.6733 69.4088 61.4441 69.5832C61.3083 69.6865 61.1765 69.7599 61.0488 69.8035L60.6516 69.2814C60.705 69.281 60.7944 69.2532 60.9199 69.1979C61.0411 69.1459 61.1697 69.0682 61.3055 68.9649C61.5305 68.7938 61.6487 68.61 61.6602 68.4137C61.6716 68.2173 61.5692 67.977 61.3529 67.6926L60.9896 67.215L60.0664 67.9173L59.7806 67.5416L60.7038 66.8393L58.5485 64.0059L57.7888 64.5135L57.5805 64.2397L59.3824 62.869L59.5907 63.1428L59.0691 63.62L61.2196 66.447Z" fill="#FF0000"/>
<path d="M58.522 69.8622C58.7692 69.7143 58.9708 69.7708 59.1268 70.0317C59.2063 70.1644 59.2317 70.2952 59.2032 70.4242C59.1774 70.5577 59.0981 70.6641 58.9654 70.7436C58.8281 70.8257 58.7064 70.8457 58.6004 70.8035C58.4971 70.7658 58.4126 70.6921 58.3469 70.5822C58.262 70.4404 58.2338 70.305 58.2623 70.176C58.289 70.0544 58.3733 69.9512 58.5151 69.8663L58.522 69.8622ZM58.0394 68.5568L58.6447 68.3531L58.8295 68.6621L57.9547 69.3346L57.9409 69.3428L57.7379 69.3151L55.6802 65.8757L55.0542 66.185L54.8775 65.8898L56.635 64.8383L56.8116 65.1335L56.2404 65.5499L58.0394 68.5568Z" fill="#FF0000"/>
<path d="M54.8682 68.3619C55.043 68.757 55.127 69.1514 55.1204 69.545C55.1111 69.9458 54.9983 70.3105 54.7822 70.6394C54.5613 70.9704 54.2313 71.2331 53.7924 71.4272C53.6021 71.5114 53.406 71.569 53.204 71.6001C53.0041 71.636 52.8264 71.6563 52.671 71.6609L52.2374 70.6017L52.6032 70.4399L53.0676 71.0743C53.1616 71.2077 53.4037 71.188 53.7939 71.0154C54.1743 70.8471 54.4144 70.5659 54.5142 70.1719C54.6091 69.78 54.5443 69.3304 54.3199 68.8232C54.0524 68.2184 53.7276 67.8139 53.3457 67.6096C52.9637 67.4053 52.5776 67.3895 52.1874 67.5621C51.9826 67.6527 51.8002 67.7743 51.6401 67.9267C51.4753 68.0813 51.3488 68.2305 51.2609 68.3744L51.037 68.1848C51.1159 67.9808 51.257 67.7725 51.4604 67.56C51.6639 67.3476 51.8875 67.1874 52.1314 67.0795C52.5167 66.9091 52.8859 66.8536 53.2388 66.9133C53.594 66.9778 53.9113 67.1348 54.1908 67.3844C54.4676 67.641 54.6934 67.9669 54.8682 68.3619Z" fill="#FF0000"/>
<path d="M50.7312 73.2582C51.0069 73.1748 51.1887 73.2786 51.2768 73.5696C51.3216 73.7176 51.3145 73.8507 51.2555 73.9688C51.1981 74.0921 51.0954 74.1761 50.9473 74.2209C50.7942 74.2673 50.6713 74.2571 50.5787 74.1904C50.4876 74.1288 50.4235 74.0367 50.3865 73.9142C50.3386 73.756 50.3441 73.6178 50.4031 73.4996C50.4585 73.3881 50.5653 73.3085 50.7236 73.2606L50.7312 73.2582ZM50.58 71.8747L51.2167 71.8242L51.3209 72.1687L50.309 72.6087L50.2937 72.6133L50.1035 72.5372L48.9426 68.701L48.2602 68.849L48.1605 68.5197L50.1208 67.9265L50.2204 68.2558L49.5651 68.5209L50.58 71.8747Z" fill="#FF0000"/>
<path d="M47.2492 69.9336C47.3354 70.4437 47.1451 70.8544 46.6785 71.1659C46.2128 71.4825 45.6052 71.7123 44.8559 71.8551L44.8972 72.0997C44.9425 72.3679 45.007 72.5733 45.0906 72.7161C45.1698 72.8649 45.2836 72.962 45.4319 73.0073C45.581 73.0578 45.7792 73.0622 46.0264 73.0204C46.2946 72.9751 46.532 72.8917 46.7386 72.7703C46.9409 72.6549 47.1348 72.5221 47.3204 72.3718L47.5526 72.6895C47.5036 72.7519 47.3951 72.846 47.227 72.9717C47.059 73.0975 46.8628 73.2171 46.6386 73.3308C46.4144 73.4444 46.1919 73.5198 45.971 73.5571C45.6134 73.6176 45.3236 73.6151 45.1016 73.5499C44.8744 73.4855 44.6974 73.3504 44.5707 73.1447C44.4387 72.9398 44.3412 72.6507 44.2781 72.2773L43.8383 69.6742L43.3492 69.7568L43.2999 69.4649C43.5758 69.3372 43.8137 69.2564 44.0135 69.2227C44.1398 69.2013 44.2301 69.2077 44.2845 69.2418C44.3381 69.2706 44.3768 69.356 44.4008 69.498L44.4501 69.7899C44.611 69.5896 44.7934 69.4046 44.9973 69.2349C45.1969 69.0714 45.4386 68.9657 45.7226 68.9177C46.1012 68.8537 46.4345 68.9056 46.7225 69.0733C47.0052 69.2419 47.1808 69.5286 47.2492 69.9336ZM45.5646 69.4231C45.4174 69.4479 45.2492 69.525 45.0601 69.6544C44.871 69.7837 44.7034 69.9283 44.5573 70.0882L44.7932 71.4844C45.4287 71.3716 45.8965 71.1952 46.1967 70.9552C46.4916 70.716 46.6129 70.4413 46.5605 70.1311C46.5098 69.8313 46.3967 69.6259 46.2211 69.515C46.0464 69.4093 45.8275 69.3786 45.5646 69.4231Z" fill="#FF0000"/>
<path d="M42.3942 75.427L43.0766 75.4711L43.0887 75.7669L41.9272 75.9505L41.9192 75.9508L41.7631 75.8531L41.5158 69.8102L40.7621 69.785L40.7481 69.4413L42.8503 69.3553L42.8644 69.699L42.1636 69.7917L42.3942 75.427Z" fill="#FF0000"/>
<circle cx="40.9283" cy="40" r="39.6" stroke="#FF0000" stroke-width="0.8"/>
</svg>
